<mxfile host="app.diagrams.net" agent="Mozilla/5.0 (Windows NT 10.0; Win64; x64) AppleWebKit/537.36 (KHTML, like Gecko) Chrome/140.0.0.0 Safari/537.36" version="28.2.2">
  <diagram id="IzR1Hr7DLXUW4sX0f1FH" name="ページ1">
    <mxGraphModel dx="786" dy="498" grid="1" gridSize="10" guides="1" tooltips="1" connect="1" arrows="1" fold="1" page="1" pageScale="1" pageWidth="827" pageHeight="1169" math="0" shadow="0">
      <root>
        <mxCell id="0" />
        <mxCell id="1" parent="0" />
        <mxCell id="rbmvUWqvc5KWMZSZa1nW-2" value="訪問者" style="shape=umlActor;verticalLabelPosition=bottom;verticalAlign=top;html=1;outlineConnect=0;" vertex="1" parent="1">
          <mxGeometry x="200" y="220" width="30" height="60" as="geometry" />
        </mxCell>
        <mxCell id="rbmvUWqvc5KWMZSZa1nW-8" value="" style="endArrow=open;endFill=1;endSize=12;html=1;rounded=0;exitX=1;exitY=0.3333333333333333;exitDx=0;exitDy=0;exitPerimeter=0;entryX=0;entryY=0.471;entryDx=0;entryDy=0;entryPerimeter=0;" edge="1" parent="1" source="rbmvUWqvc5KWMZSZa1nW-2" target="rbmvUWqvc5KWMZSZa1nW-11">
          <mxGeometry width="160" relative="1" as="geometry">
            <mxPoint x="330" y="260" as="sourcePoint" />
            <mxPoint x="354.5" y="183.80999999999995" as="targetPoint" />
          </mxGeometry>
        </mxCell>
        <mxCell id="rbmvUWqvc5KWMZSZa1nW-9" value="新規登録を&lt;div&gt;クリックする&lt;/div&gt;" style="text;html=1;align=center;verticalAlign=middle;resizable=0;points=[];autosize=1;fillColor=default;" vertex="1" parent="1">
          <mxGeometry x="220" y="180" width="100" height="40" as="geometry" />
        </mxCell>
        <mxCell id="rbmvUWqvc5KWMZSZa1nW-11" value="" style="shape=umlBoundary;whiteSpace=wrap;html=1;" vertex="1" parent="1">
          <mxGeometry x="360" y="150" width="76" height="60" as="geometry" />
        </mxCell>
        <mxCell id="rbmvUWqvc5KWMZSZa1nW-12" value="システムメニュー" style="text;html=1;align=center;verticalAlign=middle;resizable=0;points=[];autosize=1;strokeColor=none;fillColor=none;" vertex="1" parent="1">
          <mxGeometry x="340" y="210" width="120" height="30" as="geometry" />
        </mxCell>
        <mxCell id="rbmvUWqvc5KWMZSZa1nW-13" value="" style="ellipse;shape=umlControl;whiteSpace=wrap;html=1;" vertex="1" parent="1">
          <mxGeometry x="540" y="190" width="60" height="70" as="geometry" />
        </mxCell>
        <mxCell id="rbmvUWqvc5KWMZSZa1nW-14" value="" style="endArrow=open;endFill=1;endSize=12;html=1;rounded=0;exitX=1;exitY=0.55;exitDx=0;exitDy=0;exitPerimeter=0;" edge="1" parent="1" source="rbmvUWqvc5KWMZSZa1nW-11" target="rbmvUWqvc5KWMZSZa1nW-13">
          <mxGeometry width="160" relative="1" as="geometry">
            <mxPoint x="420" y="280" as="sourcePoint" />
            <mxPoint x="580" y="280" as="targetPoint" />
          </mxGeometry>
        </mxCell>
        <mxCell id="rbmvUWqvc5KWMZSZa1nW-15" value="訪問者登録画面を表示" style="text;html=1;align=center;verticalAlign=middle;resizable=0;points=[];autosize=1;strokeColor=none;fillColor=none;" vertex="1" parent="1">
          <mxGeometry x="500" y="260" width="140" height="30" as="geometry" />
        </mxCell>
        <mxCell id="rbmvUWqvc5KWMZSZa1nW-17" value="" style="shape=umlBoundary;whiteSpace=wrap;html=1;" vertex="1" parent="1">
          <mxGeometry x="360" y="270" width="76" height="60" as="geometry" />
        </mxCell>
        <mxCell id="rbmvUWqvc5KWMZSZa1nW-18" value="訪問者登録画面" style="text;html=1;align=center;verticalAlign=middle;resizable=0;points=[];autosize=1;strokeColor=none;fillColor=none;" vertex="1" parent="1">
          <mxGeometry x="345" y="330" width="110" height="30" as="geometry" />
        </mxCell>
        <mxCell id="rbmvUWqvc5KWMZSZa1nW-19" value="" style="ellipse;shape=umlEntity;whiteSpace=wrap;html=1;" vertex="1" parent="1">
          <mxGeometry x="690" y="260" width="60" height="60" as="geometry" />
        </mxCell>
        <mxCell id="rbmvUWqvc5KWMZSZa1nW-20" value="WebVisitor" style="text;html=1;align=center;verticalAlign=middle;resizable=0;points=[];autosize=1;strokeColor=none;fillColor=none;" vertex="1" parent="1">
          <mxGeometry x="680" y="318" width="80" height="30" as="geometry" />
        </mxCell>
        <mxCell id="rbmvUWqvc5KWMZSZa1nW-21" value="" style="endArrow=classic;startArrow=classic;html=1;rounded=0;entryX=1.022;entryY=0.738;entryDx=0;entryDy=0;entryPerimeter=0;exitX=-0.011;exitY=0.294;exitDx=0;exitDy=0;exitPerimeter=0;" edge="1" parent="1" source="rbmvUWqvc5KWMZSZa1nW-19" target="rbmvUWqvc5KWMZSZa1nW-13">
          <mxGeometry width="50" height="50" relative="1" as="geometry">
            <mxPoint x="470" y="300" as="sourcePoint" />
            <mxPoint x="520" y="250" as="targetPoint" />
          </mxGeometry>
        </mxCell>
        <mxCell id="rbmvUWqvc5KWMZSZa1nW-22" value="" style="endArrow=open;endFill=1;endSize=12;html=1;rounded=0;entryX=-0.026;entryY=0.506;entryDx=0;entryDy=0;entryPerimeter=0;" edge="1" parent="1" source="rbmvUWqvc5KWMZSZa1nW-2" target="rbmvUWqvc5KWMZSZa1nW-17">
          <mxGeometry width="160" relative="1" as="geometry">
            <mxPoint x="420" y="280" as="sourcePoint" />
            <mxPoint x="340" y="420" as="targetPoint" />
          </mxGeometry>
        </mxCell>
        <mxCell id="rbmvUWqvc5KWMZSZa1nW-23" value="訪問者情報を&lt;div&gt;入力する&lt;/div&gt;" style="text;html=1;align=center;verticalAlign=middle;resizable=0;points=[];autosize=1;strokeColor=none;fillColor=default;" vertex="1" parent="1">
          <mxGeometry x="260" y="250" width="100" height="40" as="geometry" />
        </mxCell>
        <mxCell id="rbmvUWqvc5KWMZSZa1nW-25" value="" style="ellipse;shape=umlControl;whiteSpace=wrap;html=1;" vertex="1" parent="1">
          <mxGeometry x="540" y="320" width="60" height="70" as="geometry" />
        </mxCell>
        <mxCell id="rbmvUWqvc5KWMZSZa1nW-26" value="訪問者登録" style="text;html=1;align=center;verticalAlign=middle;resizable=0;points=[];autosize=1;strokeColor=none;fillColor=none;" vertex="1" parent="1">
          <mxGeometry x="530" y="390" width="80" height="30" as="geometry" />
        </mxCell>
        <mxCell id="rbmvUWqvc5KWMZSZa1nW-27" value="" style="endArrow=open;endFill=1;endSize=12;html=1;rounded=0;exitX=1.053;exitY=0.483;exitDx=0;exitDy=0;exitPerimeter=0;entryX=0.022;entryY=0.595;entryDx=0;entryDy=0;entryPerimeter=0;" edge="1" parent="1" source="rbmvUWqvc5KWMZSZa1nW-17" target="rbmvUWqvc5KWMZSZa1nW-25">
          <mxGeometry width="160" relative="1" as="geometry">
            <mxPoint x="420" y="280" as="sourcePoint" />
            <mxPoint x="580" y="280" as="targetPoint" />
          </mxGeometry>
        </mxCell>
        <mxCell id="rbmvUWqvc5KWMZSZa1nW-28" value="" style="endArrow=classic;startArrow=classic;html=1;rounded=0;entryX=-0.011;entryY=0.661;entryDx=0;entryDy=0;entryPerimeter=0;" edge="1" parent="1" source="rbmvUWqvc5KWMZSZa1nW-25" target="rbmvUWqvc5KWMZSZa1nW-19">
          <mxGeometry width="50" height="50" relative="1" as="geometry">
            <mxPoint x="470" y="300" as="sourcePoint" />
            <mxPoint x="520" y="250" as="targetPoint" />
          </mxGeometry>
        </mxCell>
        <mxCell id="rbmvUWqvc5KWMZSZa1nW-29" value="" style="ellipse;shape=umlControl;whiteSpace=wrap;html=1;" vertex="1" parent="1">
          <mxGeometry x="460" y="390" width="60" height="70" as="geometry" />
        </mxCell>
        <mxCell id="rbmvUWqvc5KWMZSZa1nW-30" value="" style="endArrow=open;endFill=1;endSize=12;html=1;rounded=0;exitX=0.033;exitY=0.786;exitDx=0;exitDy=0;exitPerimeter=0;" edge="1" parent="1" source="rbmvUWqvc5KWMZSZa1nW-25" target="rbmvUWqvc5KWMZSZa1nW-29">
          <mxGeometry width="160" relative="1" as="geometry">
            <mxPoint x="380" y="360" as="sourcePoint" />
            <mxPoint x="510" y="390" as="targetPoint" />
          </mxGeometry>
        </mxCell>
        <mxCell id="rbmvUWqvc5KWMZSZa1nW-31" value="結果表示" style="text;html=1;align=center;verticalAlign=middle;resizable=0;points=[];autosize=1;strokeColor=none;fillColor=none;" vertex="1" parent="1">
          <mxGeometry x="455" y="460" width="70" height="30" as="geometry" />
        </mxCell>
        <mxCell id="rbmvUWqvc5KWMZSZa1nW-32" value="" style="shape=umlBoundary;whiteSpace=wrap;html=1;" vertex="1" parent="1">
          <mxGeometry x="330" y="410" width="76" height="60" as="geometry" />
        </mxCell>
        <mxCell id="rbmvUWqvc5KWMZSZa1nW-33" value="" style="endArrow=open;endFill=1;endSize=12;html=1;rounded=0;exitX=-0.022;exitY=0.681;exitDx=0;exitDy=0;exitPerimeter=0;entryX=0.947;entryY=0.439;entryDx=0;entryDy=0;entryPerimeter=0;" edge="1" parent="1" source="rbmvUWqvc5KWMZSZa1nW-29" target="rbmvUWqvc5KWMZSZa1nW-32">
          <mxGeometry width="160" relative="1" as="geometry">
            <mxPoint x="380" y="360" as="sourcePoint" />
            <mxPoint x="540" y="360" as="targetPoint" />
          </mxGeometry>
        </mxCell>
        <mxCell id="rbmvUWqvc5KWMZSZa1nW-35" value="訪問者登録結果表示" style="text;html=1;align=center;verticalAlign=middle;resizable=0;points=[];autosize=1;strokeColor=none;fillColor=none;" vertex="1" parent="1">
          <mxGeometry x="306" y="470" width="130" height="30" as="geometry" />
        </mxCell>
      </root>
    </mxGraphModel>
  </diagram>
</mxfile>
